# xmcd
# 
# Track frame offsets:
#     150
#     20674
#     42827
#     62550
#     78550
#     96730
#     117437
#     132280
#     155355
#     175652
#     195165
#     207158
#     229369
# 
# Disc length: 3290
# 
# Revision: 3
# Processed by: cddbd v1.5.2PL0 Copyright (c) Steve Scherf et al.
# Submitted via: fre:ac v1.0.31
# 
DISCID=ae0cd80d
DTITLE=Lionel Richie - Just For You
DYEAR=2004
DGENRE=R&B
TTITLE0=Just For You
TTITLE1=I Still Believe
TTITLE2=Long Long Way To Go
TTITLE3=Just To Be With You
TTITLE4=Heaven
TTITLE5=She's Amazing
TTITLE6=Ball and Chain
TTITLE7=Time Of Our Life (featuring Lenny Kravitz)
TTITLE8=Outrageous
TTITLE9=Road to Heaven
TTITLE10=Do Ya (duet with Daniel Bedingfield)
TTITLE11=In My Dreams
TTITLE12=One World
EXTD=
EXTT0=
EXTT1=
EXTT2=
EXTT3=
EXTT4=
EXTT5=
EXTT6=
EXTT7=
EXTT8=
EXTT9=
EXTT10=
EXTT11=
EXTT12=
PLAYORDER=
